<svg xmlns="http://www.w3.org/2000/svg" viewBox="0 0 128 96" width="128" height="96">
  <title>Weather Station Card logo</title>
  <g stroke="#FFD700" stroke-width="3" stroke-linecap="round">
    <line x1="96.00" y1="13.00" x2="96.00" y2="5.00"/>
    <line x1="108.50" y1="16.35" x2="112.50" y2="9.42"/>
    <line x1="117.65" y1="25.50" x2="124.58" y2="21.50"/>
    <line x1="121.00" y1="38.00" x2="129.00" y2="38.00"/>
    <line x1="117.65" y1="50.50" x2="124.58" y2="54.50"/>
    <line x1="108.50" y1="59.65" x2="112.50" y2="66.58"/>
    <line x1="96.00" y1="63.00" x2="96.00" y2="71.00"/>
    <line x1="83.50" y1="59.65" x2="79.50" y2="66.58"/>
    <line x1="74.35" y1="50.50" x2="67.42" y2="54.50"/>
    <line x1="71.00" y1="38.00" x2="63.00" y2="38.00"/>
    <line x1="74.35" y1="25.50" x2="67.42" y2="21.50"/>
    <line x1="83.50" y1="16.35" x2="79.50" y2="9.42"/>
  </g>
  <circle cx="96" cy="38" r="22" fill="#FFD700"/>

  <path d="M 22.3,84.0 Q 0.0,84.0 0.0,70.8 Q 0.0,51.0 27.3,51.0 Q 33.5,27.0 55.8,27.0 Q 81.8,27.0 88.0,54.0 Q 114.1,54.0 114.1,67.2 Q 114.1,84.0 91.8,84.0 Z" fill="#84D1FD"/>

  <polyline points="4,48 28,40 54,46 64,52.92" fill="none" stroke="#FF9800" stroke-width="3.5" stroke-linecap="round" stroke-linejoin="round"/>
  <polyline points="64,52.92 80,64 104,72 124,76" fill="none" stroke="#FF9800" stroke-width="3.5" stroke-linecap="round" stroke-linejoin="round" stroke-dasharray="5.3,4.2"/>
  <circle cx="4" cy="48" r="4.0" fill="#FF9800"/>
  <circle cx="28" cy="40" r="4.0" fill="#FF9800"/>
  <circle cx="54" cy="46" r="4.0" fill="#FF9800"/>
  <circle cx="80" cy="64" r="4.0" fill="#FF9800"/>
  <circle cx="104" cy="72" r="4.0" fill="#FF9800"/>
  <circle cx="124" cy="76" r="4.0" fill="#FF9800"/>

  <polyline points="4,80 28,76 54,80 64,82.31" fill="none" stroke="#44739E" stroke-width="2.5" stroke-linecap="round" stroke-linejoin="round"/>
  <polyline points="64,82.31 80,86 104,90 124,92" fill="none" stroke="#44739E" stroke-width="2.5" stroke-linecap="round" stroke-linejoin="round" stroke-dasharray="3.8,3.0"/>
  <circle cx="4" cy="80" r="3.0" fill="#44739E"/>
  <circle cx="28" cy="76" r="3.0" fill="#44739E"/>
  <circle cx="54" cy="80" r="3.0" fill="#44739E"/>
  <circle cx="80" cy="86" r="3.0" fill="#44739E"/>
  <circle cx="104" cy="90" r="3.0" fill="#44739E"/>
  <circle cx="124" cy="92" r="3.0" fill="#44739E"/>
</svg>
